<svg width="533" height="173" viewBox="0 0 533 173" fill="none" xmlns="http://www.w3.org/2000/svg">
<rect width="533" height="173" rx="30" fill="#36558F"/>
<path d="M35.4617 116V53.216H48.8057L59.5577 83.936C60.2617 85.92 60.9017 87.904 61.4777 89.888C62.0537 91.808 62.6297 93.92 63.2057 96.224H63.5897C64.1657 93.92 64.7097 91.808 65.2217 89.888C65.7977 87.904 66.4057 85.92 67.0457 83.936L77.7977 53.216H91.0457V116H80.7737V87.392C80.7737 85.408 80.8377 83.136 80.9657 80.576C81.1577 78.016 81.3817 75.488 81.6377 72.992C81.8937 70.432 82.1497 68.192 82.4057 66.272H82.0217L77.0297 82.208L66.8537 110.24H59.3657L49.1897 82.208L44.3897 66.272H44.0057C44.2617 68.192 44.4857 70.432 44.6777 72.992C44.9337 75.488 45.1257 78.016 45.2537 80.576C45.4457 83.136 45.5417 85.408 45.5417 87.392V116H35.4617ZM107.953 116V68.864H118.993V116H107.953ZM113.425 60.608C111.505 60.608 109.905 60.032 108.625 58.88C107.409 57.728 106.801 56.192 106.801 54.272C106.801 52.352 107.409 50.848 108.625 49.76C109.905 48.608 111.505 48.032 113.425 48.032C115.409 48.032 117.009 48.608 118.225 49.76C119.441 50.848 120.049 52.352 120.049 54.272C120.049 56.192 119.441 57.728 118.225 58.88C117.009 60.032 115.409 60.608 113.425 60.608ZM154.87 117.152C150.518 117.152 146.614 116.192 143.158 114.272C139.702 112.288 136.95 109.472 134.902 105.824C132.918 102.112 131.926 97.664 131.926 92.48C131.926 87.232 133.014 82.784 135.19 79.136C137.366 75.424 140.246 72.608 143.83 70.688C147.478 68.704 151.382 67.712 155.542 67.712C158.55 67.712 161.174 68.224 163.414 69.248C165.718 70.208 167.702 71.456 169.366 72.992L164.086 79.904C163.062 78.944 161.878 78.176 160.534 77.6C159.254 77.024 157.782 76.736 156.118 76.736C153.622 76.736 151.414 77.408 149.494 78.752C147.574 80.032 146.038 81.856 144.886 84.224C143.798 86.528 143.254 89.28 143.254 92.48C143.254 95.616 143.798 98.368 144.886 100.736C145.974 103.04 147.446 104.864 149.302 106.208C151.222 107.488 153.43 108.128 155.926 108.128C157.782 108.128 159.51 107.776 161.11 107.072C162.774 106.368 164.246 105.472 165.526 104.384L170.038 111.2C168.054 112.992 165.75 114.432 163.126 115.52C160.566 116.608 157.814 117.152 154.87 117.152ZM181.262 116V48.224H192.302V65.696L191.918 74.816C193.902 72.96 196.11 71.328 198.542 69.92C200.974 68.448 203.79 67.712 206.99 67.712C212.046 67.712 215.726 69.344 218.03 72.608C220.334 75.872 221.486 80.48 221.486 86.432V116H210.446V87.872C210.446 83.968 209.87 81.216 208.718 79.616C207.566 78.016 205.678 77.216 203.054 77.216C201.006 77.216 199.182 77.728 197.582 78.752C196.046 79.712 194.286 81.152 192.302 83.072V116H181.262ZM256.969 117.152C252.553 117.152 248.553 116.192 244.969 114.272C241.449 112.288 238.665 109.472 236.617 105.824C234.569 102.112 233.545 97.632 233.545 92.384C233.545 87.264 234.601 82.88 236.713 79.232C238.825 75.52 241.545 72.672 244.873 70.688C248.201 68.704 251.721 67.712 255.433 67.712C259.721 67.712 263.305 68.672 266.185 70.592C269.065 72.512 271.209 75.168 272.617 78.56C274.089 81.888 274.825 85.728 274.825 90.08C274.825 91.104 274.761 92.096 274.633 93.056C274.569 94.016 274.441 94.944 274.249 95.84H241.801V87.392H265.033C265.033 84 264.265 81.344 262.729 79.424C261.193 77.44 258.825 76.448 255.625 76.448C253.833 76.448 252.073 76.928 250.345 77.888C248.681 78.848 247.273 80.48 246.121 82.784C245.033 85.088 244.489 88.288 244.489 92.384C244.489 96.096 245.129 99.136 246.409 101.504C247.689 103.808 249.385 105.536 251.497 106.688C253.609 107.776 255.881 108.32 258.313 108.32C260.361 108.32 262.281 108.032 264.073 107.456C265.929 106.88 267.657 106.08 269.257 105.056L273.097 112.16C270.921 113.696 268.425 114.912 265.609 115.808C262.857 116.704 259.977 117.152 256.969 117.152ZM298.041 116.96C295.417 116.96 293.305 116.448 291.705 115.424C290.169 114.336 289.049 112.8 288.345 110.816C287.641 108.832 287.289 106.464 287.289 103.712V48.224H298.329V104.288C298.329 105.696 298.585 106.656 299.097 107.168C299.609 107.68 300.185 107.936 300.825 107.936C301.081 107.936 301.305 107.936 301.497 107.936C301.753 107.872 302.073 107.808 302.457 107.744L303.897 116C303.257 116.256 302.425 116.48 301.401 116.672C300.441 116.864 299.321 116.96 298.041 116.96ZM326.024 116.96C323.4 116.96 321.288 116.448 319.688 115.424C318.152 114.336 317.032 112.8 316.328 110.816C315.624 108.832 315.272 106.464 315.272 103.712V48.224H326.312V104.288C326.312 105.696 326.568 106.656 327.08 107.168C327.592 107.68 328.168 107.936 328.808 107.936C329.064 107.936 329.288 107.936 329.48 107.936C329.736 107.872 330.056 107.808 330.44 107.744L331.88 116C331.24 116.256 330.408 116.48 329.384 116.672C328.424 116.864 327.304 116.96 326.024 116.96ZM363.51 117.152C359.094 117.152 355.094 116.192 351.51 114.272C347.99 112.288 345.206 109.472 343.158 105.824C341.11 102.112 340.086 97.632 340.086 92.384C340.086 87.264 341.142 82.88 343.254 79.232C345.366 75.52 348.086 72.672 351.414 70.688C354.742 68.704 358.262 67.712 361.974 67.712C366.262 67.712 369.846 68.672 372.726 70.592C375.606 72.512 377.75 75.168 379.158 78.56C380.63 81.888 381.366 85.728 381.366 90.08C381.366 91.104 381.302 92.096 381.174 93.056C381.11 94.016 380.982 94.944 380.79 95.84H348.342V87.392H371.574C371.574 84 370.806 81.344 369.27 79.424C367.734 77.44 365.366 76.448 362.166 76.448C360.374 76.448 358.614 76.928 356.886 77.888C355.222 78.848 353.814 80.48 352.662 82.784C351.574 85.088 351.03 88.288 351.03 92.384C351.03 96.096 351.67 99.136 352.95 101.504C354.23 103.808 355.926 105.536 358.038 106.688C360.15 107.776 362.422 108.32 364.854 108.32C366.902 108.32 368.822 108.032 370.614 107.456C372.47 106.88 374.198 106.08 375.798 105.056L379.638 112.16C377.462 113.696 374.966 114.912 372.15 115.808C369.398 116.704 366.518 117.152 363.51 117.152ZM415.929 116V53.216H427.065V106.592H453.177V116H415.929ZM484.114 117.152C479.698 117.152 475.698 116.192 472.114 114.272C468.594 112.288 465.81 109.472 463.762 105.824C461.714 102.112 460.69 97.632 460.69 92.384C460.69 87.264 461.746 82.88 463.858 79.232C465.97 75.52 468.69 72.672 472.018 70.688C475.346 68.704 478.866 67.712 482.578 67.712C486.866 67.712 490.45 68.672 493.33 70.592C496.21 72.512 498.354 75.168 499.762 78.56C501.234 81.888 501.97 85.728 501.97 90.08C501.97 91.104 501.906 92.096 501.778 93.056C501.714 94.016 501.586 94.944 501.394 95.84H468.946V87.392H492.178C492.178 84 491.41 81.344 489.874 79.424C488.338 77.44 485.97 76.448 482.77 76.448C480.978 76.448 479.218 76.928 477.49 77.888C475.826 78.848 474.418 80.48 473.266 82.784C472.178 85.088 471.634 88.288 471.634 92.384C471.634 96.096 472.274 99.136 473.554 101.504C474.834 103.808 476.53 105.536 478.642 106.688C480.754 107.776 483.026 108.32 485.458 108.32C487.506 108.32 489.426 108.032 491.218 107.456C493.074 106.88 494.802 106.08 496.402 105.056L500.242 112.16C498.066 113.696 495.57 114.912 492.754 115.808C490.002 116.704 487.122 117.152 484.114 117.152Z" fill="#FDFDFF"/>
</svg>
